<svg width="93" height="29" viewBox="0 0 93 29" fill="none" xmlns="http://www.w3.org/2000/svg">
<g clip-path="url(#clip0_1_9980)">
<path d="M89.8622 23.33L84.2757 15.8248L78.7738 23.33H76.5237L83.1893 14.2413L77.1019 5.9848H79.352L84.272 12.7388L89.2767 5.9848H91.5268L85.4431 14.2413L92.1123 23.33H89.8622ZM59.4252 14.9078C59.0901 14.5727 58.674 14.3223 58.2578 14.1566C59.5099 13.49 60.3422 12.1569 60.3422 10.6544C60.3422 9.57169 59.9261 5.9848 54.7556 5.9848H47.7513V13.49H45.4165C45.0813 13.9062 44.4148 14.8231 44.1644 15.243H47.7513V23.33H54.7556C58.5929 23.33 60.9277 21.4114 60.9277 18.2443C60.9241 16.9075 60.4269 15.7401 59.4252 14.9078ZM49.6699 7.81876H54.7556C56.1735 7.81876 58.4235 8.15388 58.4235 10.5697C58.4235 12.4036 57.0904 13.49 54.7556 13.49H49.6699V7.81876ZM54.7556 21.4961H49.6699V15.1583H54.7556C56.6743 15.1583 59.0091 15.6591 59.0091 18.1596C59.0091 21.0799 56.3392 21.4961 54.7556 21.4961Z" fill="white"/>
<path d="M70.0158 5.56921C65.1805 5.56921 61.7593 9.32182 61.7593 14.658C61.7593 19.9941 65.1768 23.662 70.0158 23.662C74.8547 23.662 78.2722 19.9094 78.2722 14.658C78.2686 9.32182 74.9321 5.56921 70.0158 5.56921ZM70.0158 21.8281C66.3479 21.8281 63.7626 18.8267 63.7626 14.658C63.7626 10.4045 66.3479 7.48787 70.0158 7.48787C73.6837 7.48787 76.2689 10.4892 76.2689 14.658C76.3499 18.9114 73.7647 21.8281 70.0158 21.8281ZM46.7488 23.3306L40.1606 14.2418L46.1633 5.98535H43.9132L38.9932 12.7393L34.0732 5.98535H31.7384L37.8258 14.2418L31.1566 23.3306H33.4913L38.9932 15.8254L44.4951 23.3306H46.7488Z" fill="white"/>
<path d="M28.1474 14.8713C28.1474 22.5423 21.8096 28.7954 14.054 28.7954C6.29835 28.7954 0.0452271 22.546 0.0452271 14.8713C0.0452271 7.19672 6.38305 0.947281 14.1387 0.947281C21.8943 0.947281 28.1474 7.2004 28.1474 14.8713Z" fill="#666666"/>
<path d="M28.1474 14.8724C28.1474 22.5433 21.8096 28.7964 14.054 28.7964C6.29835 28.7964 0.0452271 22.5433 0.0452271 14.8724C0.0452271 7.20142 6.38305 0.944611 14.1387 0.944611C21.8943 0.944611 28.1474 7.20142 28.1474 14.8724Z" fill="url(#paint0_radial_1_9980)"/>
<path d="M28.1474 14.8724C28.1474 22.5433 21.8096 28.7964 14.054 28.7964C6.29835 28.7964 0.0452271 22.5433 0.0452271 14.8724C0.0452271 7.20142 6.38305 0.944611 14.1387 0.944611C21.8943 0.944611 28.1474 7.20142 28.1474 14.8724Z" fill="url(#paint1_radial_1_9980)"/>
<path d="M28.1474 14.8724C28.1474 22.5433 21.8096 28.7964 14.054 28.7964C6.29835 28.7964 0.0452271 22.5433 0.0452271 14.8724C0.0452271 7.20142 6.38305 0.944611 14.1387 0.944611C21.8943 0.944611 28.1474 7.20142 28.1474 14.8724Z" fill="url(#paint2_radial_1_9980)"/>
<path d="M10.5662 8.80994C9.0526 10.7286 2.50119 18.3259 3.09041 23.5C3.51023 24.0008 3.93005 24.5017 4.43457 24.9178C4.34987 20.9958 9.05628 16.7387 12.669 13.4832L10.5662 8.80994Z" fill="#00A54D"/>
<path d="M10.5662 8.80994C9.0526 10.7286 2.50119 18.3259 3.09041 23.5C3.51023 24.0008 3.93005 24.5017 4.43457 24.9178C4.34987 20.9958 9.05628 16.7387 12.669 13.4832L10.5662 8.80994Z" fill="url(#paint3_linear_1_9980)"/>
<path d="M6.75514 3.07961C5.9155 3.58045 5.15687 4.1623 4.48663 4.74784C6.75514 5.16398 8.93894 7.16734 10.1984 8.75456C11.2922 10.4228 11.8777 11.9253 12.6363 13.5125C13.1408 13.0964 13.6454 12.6802 14.2346 12.1757V5.3297C12.4669 4.33171 9.77859 2.99491 6.75514 3.07961Z" fill="#02A74D"/>
<path d="M6.75514 3.07664C5.9155 3.57748 5.16056 4.16302 4.48663 4.74488C6.75514 5.16102 8.93894 7.16437 10.1984 8.75159C11.2922 10.4198 11.8777 11.9223 12.6363 13.5096C13.1408 13.0934 13.6454 12.6736 14.2309 12.1728V5.33042C12.4669 4.32874 9.77859 2.99563 6.75514 3.07664Z" fill="url(#paint4_linear_1_9980)"/>
<path d="M17.6894 8.81392C19.1956 10.7363 25.7286 18.3372 25.1394 23.515C24.7195 24.0159 24.3034 24.5167 23.7989 24.9365C23.8836 21.0108 19.1956 16.75 15.594 13.4946L17.6894 8.81392Z" fill="#00A54D"/>
<path d="M17.6898 8.81392C19.196 10.7363 25.729 18.3372 25.1435 23.515C24.7236 24.0159 24.3075 24.5167 23.803 24.9365C23.8877 21.0108 19.196 16.75 15.5981 13.4946L17.6898 8.81392Z" fill="url(#paint5_linear_1_9980)"/>
<path d="M21.4854 3.07561C22.3214 3.57645 23.0763 4.16199 23.7466 4.74753C21.4854 5.16367 19.309 7.17071 18.0532 8.75792C16.9668 10.4298 16.3776 11.9324 15.6264 13.5196C15.1218 13.0998 14.621 12.6836 14.0355 12.1828V5.33307C15.7111 4.32771 18.473 2.99091 21.4854 3.07561Z" fill="#02A74D"/>
<path d="M21.4891 3.07561C22.3251 3.57645 23.08 4.16199 23.7503 4.74753C21.4891 5.16367 19.309 7.17071 18.0532 8.75792C16.9632 10.4298 16.3776 11.9324 15.6264 13.5196C15.1255 13.1034 14.621 12.6836 14.0355 12.1828V5.33307C15.7111 4.32771 18.473 2.99091 21.4891 3.07561Z" fill="url(#paint6_linear_1_9980)"/>
</g>
<defs>
<radialGradient id="paint0_radial_1_9980" cx="0" cy="0" r="1" gradientUnits="userSpaceOnUse" gradientTransform="translate(13.8755 13.392) rotate(90) scale(20.2645 17.9945)">
<stop stop-color="white"/>
<stop offset="1" stop-color="white" stop-opacity="0"/>
</radialGradient>
<radialGradient id="paint1_radial_1_9980" cx="0" cy="0" r="1" gradientUnits="userSpaceOnUse" gradientTransform="translate(13.8755 13.392) rotate(90) scale(20.2645 17.9945)">
<stop stop-color="white"/>
<stop offset="1" stop-color="white" stop-opacity="0"/>
</radialGradient>
<radialGradient id="paint2_radial_1_9980" cx="0" cy="0" r="1" gradientUnits="userSpaceOnUse" gradientTransform="translate(13.8755 13.392) rotate(90) scale(20.2645 17.9945)">
<stop stop-color="white"/>
<stop offset="1" stop-color="white" stop-opacity="0"/>
</radialGradient>
<linearGradient id="paint3_linear_1_9980" x1="9.05029" y1="18.7312" x2="5.75333" y2="14.8115" gradientUnits="userSpaceOnUse">
<stop stop-color="#97CA43"/>
<stop offset="1" stop-color="#97CA43" stop-opacity="0"/>
</linearGradient>
<linearGradient id="paint4_linear_1_9980" x1="8.90531" y1="9.45393" x2="11.9055" y2="2.70621" gradientUnits="userSpaceOnUse">
<stop stop-color="#97CA43"/>
<stop offset="1" stop-color="#97CA43" stop-opacity="0"/>
</linearGradient>
<linearGradient id="paint5_linear_1_9980" x1="21.0683" y1="17.2528" x2="17.761" y2="13.3535" gradientUnits="userSpaceOnUse">
<stop stop-color="#97CA43"/>
<stop offset="1" stop-color="#97CA43" stop-opacity="0"/>
</linearGradient>
<linearGradient id="paint6_linear_1_9980" x1="17.186" y1="7.80233" x2="19.7698" y2="3.57142" gradientUnits="userSpaceOnUse">
<stop stop-color="#97CA43"/>
<stop offset="1" stop-color="#97CA43" stop-opacity="0"/>
</linearGradient>
<clipPath id="clip0_1_9980">
<rect width="92.066" height="27.8518" fill="white" transform="translate(0.0452271 0.947327)"/>
</clipPath>
</defs>
</svg>
