<svg width="116" height="29" viewBox="0 0 116 29" fill="none" xmlns="http://www.w3.org/2000/svg">
<g clip-path="url(#clip0_1_9972)">
<path d="M115.845 6.79707H115.299V5.43287L114.753 6.33324H114.48L114.207 5.43287V6.79707H113.66V4.47792H114.207L114.753 5.73299L115.299 4.47792H115.845V6.79707ZM113.387 4.88719H112.841V6.79707H112.295V4.88719H111.749V4.47792H113.387V4.88719ZM110.383 13.4817H108.744V8.24312L106.833 11.6536H105.74L104.102 8.24312V13.4817H102.19V4.47792H104.102L106.286 9.33449L108.744 4.47792H110.383V13.4817ZM99.7319 13.4817H97.8201L97.2739 11.8992H94.2697L93.7235 13.4817H91.8118L95.0891 4.47792H96.4546L99.7319 13.4817ZM97.0008 10.3986L95.9084 7.12448L94.816 10.3986H97.0008ZM89.0807 13.4817H83.0723V4.47792H89.0807V6.03312H84.9841V8.16127H88.5345V9.71646H84.9841V11.9265H89.0807V13.4817ZM80.3412 6.03312H78.1564V13.4817H76.2446V6.03312H73.7867V4.47792H80.3412V6.03312ZM71.6018 10.8351C71.6018 12.6904 69.9632 13.5362 68.3245 13.5635C66.6859 13.5635 65.5934 13.1815 65.0472 12.363L66.1396 11.2444C66.6859 11.7355 67.2321 12.0083 68.3245 12.0083C69.4169 12.0083 69.9632 11.6263 69.9632 10.8897C69.9632 10.2076 69.4169 9.90745 68.8707 9.79831L67.7783 9.66189C66.1396 9.44362 65.3203 8.59782 65.3203 7.12448C65.3203 6.30596 65.5934 5.65114 66.1396 5.13274C66.6859 4.64163 67.5052 4.39607 68.3245 4.39607C69.69 4.39607 70.5094 4.75076 71.3287 5.43287L70.2363 6.55151C69.69 6.14225 69.1438 5.92398 68.3245 5.92398C67.5052 5.97855 66.959 6.27867 66.959 7.06991C66.959 7.69744 67.5052 7.99757 68.0514 8.05213L69.1438 8.21584C70.5094 8.37954 71.6018 9.3072 71.6018 10.8351ZM57.6733 9.19806C57.6733 11.6536 55.4884 13.6454 53.0305 13.6454C50.5725 13.6454 48.6607 11.6536 48.6607 9.19806C48.6607 6.76978 50.5725 4.77805 53.0305 4.77805C55.4884 4.77805 57.6733 6.76978 57.6733 9.19806ZM53.0305 0.958282C48.6607 0.958282 44.8372 4.61434 44.8372 9.17078L39.6482 16.5648C39.3751 16.5372 39.3751 16.5102 39.102 16.5102C38.0095 16.5102 36.9171 16.8376 35.8247 17.3833L12.5013 7.99757C11.8731 5.21459 9.38782 3.14101 6.43826 3.14101C3.05172 3.14101 0.260559 5.92398 0.260559 9.33449C0.260559 12.7177 3.05172 15.5007 6.43826 15.5007C7.6129 15.5007 8.67774 15.2006 9.60658 14.6276L33.0939 24.0133C33.6401 26.8781 36.098 28.788 39.1022 28.788C42.1064 28.788 44.8375 26.3324 45.1106 23.3039L53.0307 17.5197C57.6736 17.5197 61.4971 13.8091 61.4971 9.22535C61.4968 4.66891 57.6733 0.958282 53.0305 0.958282ZM53.0305 3.68669C56.3078 3.68669 58.7657 6.16954 58.7657 9.22535C58.7657 12.3084 56.3078 14.7913 53.0305 14.7913C50.0263 14.7913 47.5683 12.3084 47.5683 9.22535C47.5683 6.16954 50.0263 3.68669 53.0305 3.68669ZM6.43826 4.77805C8.18615 4.77805 9.71555 5.73299 10.4805 7.17905L8.21346 6.27867C6.38364 5.62385 4.36264 6.52423 3.62525 8.32498C2.91517 10.153 3.73449 12.1993 5.50969 12.9905L7.42145 13.7545C7.12076 13.8364 6.7933 13.8636 6.43799 13.8636C3.92567 13.8636 1.9044 11.8446 1.9044 9.33449C1.90467 6.79707 3.92567 4.77805 6.43826 4.77805ZM39.102 18.1472C41.5599 18.1472 43.4717 20.1935 43.4717 22.7037C43.4717 25.2411 41.5599 27.151 39.102 27.151C37.1902 27.151 35.8247 26.3324 35.0053 24.8318C35.8247 25.2411 36.3709 25.5139 37.1902 25.7868C39.102 26.6053 41.0137 25.5139 41.833 23.7677C42.3793 22.0764 41.833 19.7573 39.9213 19.0206L38.0095 18.2566C38.2826 18.2018 38.8288 18.1472 39.102 18.1472Z" fill="white"/>
</g>
<defs>
<clipPath id="clip0_1_9972">
<rect width="115.585" height="27.8518" fill="white" transform="translate(0.260559 0.947327)"/>
</clipPath>
</defs>
</svg>
