<svg width="184" height="29" viewBox="0 0 184 29" fill="none" xmlns="http://www.w3.org/2000/svg">
<g clip-path="url(#clip0_1_9996)">
<path fill-rule="evenodd" clip-rule="evenodd" d="M19.8592 6.80231L19.8351 28.6907L13.9327 26.7834V1.05571L21.4668 3.03482C26.2895 4.32263 29.2408 6.82597 29.1928 11.2132C29.1448 16.316 26.7694 18.3663 22.1386 17.0311V6.96887C22.1386 5.75283 19.8592 5.68163 19.8592 6.80231Z" fill="#DE0029"/>
<path fill-rule="evenodd" clip-rule="evenodd" d="M11.2205 22.5387L8.43711 23.4687C6.63732 24.0888 5.10188 22.6344 6.75749 22.038L8.10105 21.5614L3.03821 19.9636C1.47849 20.4884 0.0147597 21.609 0.111004 23.1827C0.206991 24.7801 3.87797 25.1619 6.70949 25.6149C9.34874 26.0438 11.7482 25.8055 13.9319 25.0425V23.3971L11.2205 22.5387ZM19.8825 28.6906L25.0412 26.9021L19.8345 25.2572V28.5712L19.8825 28.6906Z" fill="#F3C202"/>
<path fill-rule="evenodd" clip-rule="evenodd" d="M33.6075 23.8982L33.7033 23.8742C35.9588 23.0876 36.9187 21.9904 36.6789 20.9654C36.2949 19.2487 33.5356 18.3187 29.2884 18.0086C26.2412 17.7942 23.242 18.4616 20.3147 19.4629L19.8348 19.63L25.0895 21.2514L28.1608 20.226C31.376 19.63 32.672 20.679 29.5766 21.6567L28.0408 22.181L33.6075 23.8982ZM13.9323 16.316L11.6046 17.1026L13.9323 17.8179V16.316Z" fill="#326DB3"/>
<path fill-rule="evenodd" clip-rule="evenodd" d="M25.041 26.9022L33.607 23.8982L28.0402 22.181L19.8343 24.9707V25.2572L25.041 26.9022ZM13.9318 21.6326L11.2204 22.5386L13.9318 23.397V21.6326ZM19.8343 23.0398V19.63L25.0891 21.2514L19.8343 23.0398ZM8.10094 21.5615L13.9317 19.4871V17.818L11.6041 17.1026L3.15805 19.94C3.13403 19.94 3.08609 19.9636 3.03815 19.9636L8.10094 21.5615Z" fill="#00AA9E"/>
</g>
<g clip-path="url(#clip1_1_9996)">
<path d="M53.6294 3.76646V21.8378H56.4666V5.49848H59.0926C59.0926 5.49848 61.0006 5.49848 61.6538 6.3469C62.2088 7.06762 62.3102 8.37503 62.3102 9.25785C62.3102 10.2027 62.2502 11.6628 61.9313 12.1973C61.4474 13.0141 60.6531 13.1777 59.9267 13.1777H58.1932V14.7817H60.6861C60.6861 14.7817 62.9352 14.875 63.9025 13.8973C65.0885 12.6986 65.3898 11.0871 65.3898 8.92971C65.3898 6.96957 64.6746 4.99204 63.2127 4.32034C62.0025 3.76685 59.8205 3.76685 59.8205 3.76685L53.6294 3.76646ZM67.6195 21.8382H70.4562V3.76685H67.6195V21.8382ZM85.5491 7.98166L90.7395 21.5085L87.7597 28.7655H90.1145L98.6955 7.98166H96.0663L92.3283 18.1117L88.8506 7.98166H85.5491ZM100.832 21.7307V20.0228C100.832 20.0228 103.832 20.1398 104.457 20.1398C105.841 20.1398 106.533 19.8465 107.053 19.2914C107.36 18.9585 107.638 17.4843 107.638 16.9588C107.638 16.4354 107.537 15.3035 107.331 14.8398C107.118 14.3855 106.634 13.9613 105.91 13.9C105.393 13.8558 104.594 13.7518 103.659 13.7091C102.349 13.6474 101.483 12.9678 101.066 12.4791C100.653 11.9901 100.099 11.2536 100.099 9.00008C100.099 6.74383 100.686 5.47911 101.274 4.89241C101.863 4.30255 102.723 4.04399 103.385 3.92736C104.146 3.79808 105.389 3.79018 105.389 3.79018L109.36 3.90522V5.61313C109.36 5.61313 106.465 5.49808 105.842 5.49808C104.457 5.49808 104.041 5.79301 103.523 6.3465C103.217 6.67583 102.977 7.5875 102.977 8.10976C102.977 8.63438 103.039 9.69431 103.247 10.1529C103.453 10.6076 103.938 11.033 104.665 11.0978C105.18 11.1373 105.981 11.2413 106.913 11.2836C108.229 11.3453 109.094 12.0233 109.506 12.5139C109.924 13.0042 110.478 14.0372 110.478 16.2887C110.478 18.5454 109.887 20.1572 109.301 20.7455C108.712 21.3318 107.852 21.5939 107.191 21.7074C106.428 21.8378 105.185 21.8477 105.185 21.8477L100.832 21.7307ZM116.311 5.49769H113.476V18.7648C113.476 18.7648 113.544 19.9757 113.614 20.4015C113.683 20.8273 114.306 21.8382 115.932 21.8382L118.87 21.7813V20.0797C118.87 20.0797 118.074 20.1367 117.594 20.1367C117.107 20.1367 116.517 20.105 116.417 19.2867C116.311 18.4699 116.311 17.4937 116.311 17.4937V9.68166H119.514V7.98166H116.311V5.49808L116.311 5.49769ZM143.689 21.8382H146.524V7.98245H143.689V21.8382ZM143.689 6.28166H146.524V3.76606H143.689V6.28166ZM155.487 7.86345C157.417 7.86345 158.915 8.29241 159.718 8.9388C160.53 9.58717 161.527 10.9543 161.527 14.9105C161.527 18.8672 160.53 20.2327 159.718 20.8827C158.914 21.5291 157.417 21.9612 155.487 21.9612C153.552 21.9612 152.062 21.5291 151.252 20.8827C150.441 20.2327 149.449 18.8672 149.449 14.9105C149.449 10.9543 150.441 9.58678 151.252 8.9388C152.062 8.29241 153.552 7.86345 155.487 7.86345ZM153.543 10.5202C153.153 10.9986 152.677 12.0028 152.677 14.9105C152.677 17.8171 153.153 18.8229 153.543 19.2989C153.932 19.7725 154.648 20.0924 155.576 20.0924C156.505 20.0924 157.219 19.7721 157.613 19.2993C158.001 18.8229 158.476 17.8167 158.476 14.9109C158.476 12.0028 158.001 10.9982 157.613 10.5206C157.219 10.0462 156.505 9.72871 155.576 9.72871C154.649 9.72871 153.932 10.0458 153.543 10.5206L153.543 10.5202ZM167.403 9.92757L170.185 9.81094C170.912 9.81094 171.769 10.0062 172.185 10.5301C172.571 11.0235 172.816 11.6118 172.816 12.5594V21.8224H175.656V12.3261C175.656 10.5301 175.099 9.48596 174.265 8.83008C173.076 7.89192 170.945 7.98166 170.945 7.98166L164.59 8.09513V21.8224H167.403V9.92757ZM138.04 5.49769H135.203V18.7648C135.203 18.7648 135.27 19.9757 135.338 20.4015C135.409 20.8273 136.027 21.8382 137.66 21.8382L140.598 21.7813V20.0797C140.598 20.0797 139.8 20.1367 139.318 20.1367C138.836 20.1367 138.245 20.105 138.141 19.2867C138.04 18.4699 138.04 17.4937 138.04 17.4937V9.68166H141.235V7.98166H138.04L138.04 5.49769ZM81.2215 12.5594C81.2215 11.6118 80.979 11.0235 80.5885 10.5301C80.1731 10.0062 79.3203 9.81054 78.5903 9.81054L74.8491 9.92757V8.09513L79.3517 7.98166C79.3517 7.98166 81.4827 7.89152 82.6738 8.83008C83.5048 9.48636 84.0566 10.5301 84.0566 12.3261V21.69L78.6205 21.8066C78.6205 21.8066 76.1595 21.8153 74.919 21.3164C73.7108 20.8273 73.0512 19.4855 73.0512 17.623C73.0512 15.8254 73.6046 14.7813 74.4356 14.1254C75.6263 13.1856 77.7562 13.2785 77.7562 13.2785H79.4928V14.8746H78.5187C77.7896 14.8746 77.0397 15.0086 76.6223 15.532C76.2338 16.0207 76.0259 16.4453 76.0259 17.3929C76.0259 18.6371 76.2684 19.1918 76.8568 19.6148C77.3773 19.9916 78.308 20.0734 79.3469 20.0734L81.2215 19.9599V12.5594ZM129.054 12.5594C129.054 11.6118 128.817 11.0235 128.427 10.5301C128.006 10.0062 127.153 9.81054 126.429 9.81054L122.689 9.92757V8.09513L127.188 7.98166C127.188 7.98166 129.318 7.89152 130.507 8.83008C131.338 9.48636 131.893 10.5301 131.893 12.3261V21.69L126.457 21.8066C126.457 21.8066 123.993 21.8153 122.755 21.3164C121.546 20.8273 120.884 19.4855 120.884 17.623C120.884 15.8254 121.443 14.7813 122.269 14.1254C123.458 13.1856 125.593 13.2785 125.593 13.2785H127.328V14.8746H126.352C125.628 14.8746 124.873 15.0086 124.461 15.532C124.07 16.0207 123.861 16.4453 123.861 17.3929C123.861 18.6371 124.105 19.1918 124.692 19.6148C125.211 19.9916 126.146 20.0734 127.185 20.0734L129.055 19.9599L129.054 12.5594ZM180.797 21.9517C181.161 21.9525 181.521 21.8819 181.858 21.7439C182.194 21.6058 182.5 21.4031 182.757 21.1473C183.015 20.8915 183.219 20.5877 183.358 20.2532C183.497 19.9188 183.568 19.5604 183.568 19.1985C183.569 18.8365 183.497 18.4779 183.358 18.1434C183.219 17.8089 183.015 17.5051 182.757 17.2494C182.5 16.9933 182.194 16.7904 181.858 16.6523C181.521 16.5142 181.161 16.4437 180.797 16.4449C179.276 16.4449 178.028 17.68 178.028 19.1985C178.028 19.9331 178.314 20.6257 178.842 21.1476C179.098 21.4028 179.403 21.6053 179.739 21.7432C180.074 21.8812 180.434 21.9521 180.797 21.9517ZM178.493 19.1985C178.493 18.5865 178.736 18.0109 179.168 17.5787C179.382 17.3654 179.636 17.1961 179.915 17.0805C180.195 16.965 180.494 16.9055 180.797 16.9055C181.412 16.9055 181.993 17.1466 182.427 17.5787C182.641 17.7911 182.812 18.0436 182.928 18.3215C183.044 18.5995 183.103 18.8975 183.103 19.1985C183.103 20.4616 182.07 21.4915 180.797 21.4915C180.494 21.4914 180.195 21.432 179.915 21.3167C179.636 21.2013 179.382 21.0324 179.168 20.8194C178.954 20.6068 178.784 20.3541 178.668 20.076C178.552 19.7978 178.492 19.4996 178.493 19.1985" fill="white"/>
<path d="M182.165 20.4774C182.124 20.4616 182.092 20.4142 182.075 20.343C182.058 20.2669 182.049 20.1893 182.048 20.1114L182.035 19.7156C182.029 19.5298 181.989 19.397 181.922 19.3084C181.88 19.2491 181.815 19.2017 181.74 19.1574C181.832 19.0973 181.914 19.0249 181.973 18.9336C182.051 18.8103 182.092 18.6545 182.092 18.4651C182.092 18.1026 181.938 17.8468 181.639 17.7128C181.48 17.6416 181.288 17.61 181.053 17.61H179.621V20.6759H180.154V19.4187H180.996C181.149 19.4187 181.263 19.4345 181.327 19.4634C181.437 19.5167 181.496 19.6255 181.502 19.7915L181.526 20.2817C181.532 20.4015 181.539 20.4771 181.548 20.5213C181.562 20.5688 181.57 20.6063 181.588 20.638L181.61 20.6759H182.205V20.496L182.165 20.4771L182.165 20.4774ZM181.548 18.5031C181.548 18.6747 181.504 18.7885 181.418 18.8514C181.32 18.9162 181.184 18.9522 181.012 18.9522H180.154V18.0856H181.065C181.186 18.0856 181.288 18.1026 181.361 18.1374C181.488 18.2006 181.548 18.3232 181.548 18.5031Z" fill="white"/>
</g>
<defs>
<clipPath id="clip0_1_9996">
<rect width="36.9036" height="27.8518" fill="white" transform="translate(0.0147095 0.947327)"/>
</clipPath>
<clipPath id="clip1_1_9996">
<rect width="130.207" height="25.0666" fill="white" transform="translate(53.6294 3.73251)"/>
</clipPath>
</defs>
</svg>
